<?xml version="1.0" encoding="UTF-8"?>
<svg id="Layer_1" data-name="Layer 1" xmlns="http://www.w3.org/2000/svg" viewBox="0 0 128.82 128.82">
  <defs>
    <style>
      .cls-1 {
        fill: #6a1400;
        stroke-width: 3px;
      }

      .cls-2 {
        fill: #eb4138;
        stroke: #6a1400;
        stroke-miterlimit: 10;
        stroke-width: 3px;
      }
    </style>
  </defs>
  <circle id="hoofd" class="cls-2" cx="64.41" cy="64.41" r="62.91"/>
  <g id="oogL">
    <rect class="cls-1" x="26.07" y="45.55" width="35.3" height="4.9" rx="1.5" ry="1.5" transform="translate(45.49 -16.9) rotate(43.89)"/>
    <rect class="cls-1" x="26.18" y="45.26" width="35.42" height="4.9" rx="1.5" ry="1.5" transform="translate(-20.92 46.26) rotate(-46.11)"/>
  </g>
  <g id="oogR">
    <rect class="cls-1" x="67.81" y="45.86" width="35.3" height="4.9" rx="1.5" ry="1.5" transform="translate(57.36 -45.75) rotate(43.89)"/>
    <rect class="cls-1" x="67.92" y="45.56" width="35.42" height="4.9" rx="1.5" ry="1.5" transform="translate(-8.33 76.44) rotate(-46.11)"/>
  </g>
  <g id="mond">
    <path class="cls-1" d="M95.49,89.42c-3.35-2.59-14.95-10.86-31.83-10.61-15.96.24-26.86,7.95-30.32,10.61-1.38-.2-2.75-.62-3.03-1.52-1.12-3.64,15.46-16.13,33.35-16.68,19.47-.59,37.52,13.06,36.38,16.68-.34,1.07-2.41,1.43-4.55,1.52Z"/>
    <path class="cls-1" d="M84.43,93.21l-.86-14.15c-.12-1.93-1.7-3.4-3.52-3.27l-8.41.57,1.96,15.51c.14,1.09-.59,2.11-1.63,2.25-1.03.15-1.99-.63-2.13-1.72l-1.99-15.78-6.94.47c-1.82.12-3.21,1.8-3.1,3.73l.89,14.5c.34,5.59,4.95,9.87,10.23,9.51l6.2-.42c5.47-.37,9.66-5.41,9.31-11.2Z"/>
  </g>
</svg>